<svg width="210" height="183" viewBox="0 0 210 183" fill="none" xmlns="http://www.w3.org/2000/svg">
<path d="M84.1519 171.601V172.072H80.8895V171.734L82.9114 168.605H83.3797L82.8773 169.511L81.5407 171.601H84.1519ZM83.5224 168.605V173.12H82.9486V168.605H83.5224ZM86.0436 173.12H85.1009L85.1071 172.634H86.0436C86.3662 172.634 86.6349 172.566 86.8499 172.432C87.065 172.296 87.2262 172.105 87.3337 171.861C87.4433 171.615 87.4981 171.328 87.4981 170.999V170.723C87.4981 170.465 87.4671 170.235 87.405 170.035C87.343 169.832 87.2521 169.662 87.1321 169.523C87.0122 169.383 86.8654 169.276 86.6918 169.204C86.5202 169.131 86.3227 169.095 86.0995 169.095H85.0823V168.605H86.0995C86.3951 168.605 86.6649 168.655 86.9089 168.754C87.1528 168.851 87.3627 168.993 87.5384 169.179C87.7162 169.363 87.8527 169.586 87.9478 169.849C88.0429 170.109 88.0904 170.403 88.0904 170.729V170.999C88.0904 171.326 88.0429 171.621 87.9478 171.883C87.8527 172.144 87.7152 172.366 87.5353 172.55C87.3575 172.734 87.1425 172.875 86.8903 172.975C86.6401 173.072 86.3579 173.12 86.0436 173.12ZM85.4203 168.605V173.12H84.8218V168.605H85.4203Z" fill="#828282"/>
<path d="M115.914 171.654L115.455 171.537L115.681 169.288H117.998V169.818H116.168L116.032 171.047C116.114 170.999 116.219 170.955 116.345 170.913C116.473 170.872 116.62 170.851 116.785 170.851C116.994 170.851 117.181 170.887 117.346 170.96C117.512 171.03 117.652 171.131 117.768 171.264C117.886 171.396 117.976 171.555 118.038 171.741C118.1 171.927 118.131 172.135 118.131 172.365C118.131 172.582 118.101 172.781 118.041 172.963C117.983 173.145 117.895 173.304 117.777 173.441C117.66 173.575 117.511 173.679 117.331 173.754C117.153 173.828 116.943 173.865 116.701 173.865C116.519 173.865 116.347 173.841 116.183 173.791C116.022 173.739 115.877 173.662 115.749 173.558C115.623 173.453 115.52 173.323 115.439 173.168C115.361 173.011 115.311 172.827 115.29 172.616H115.836C115.861 172.785 115.911 172.928 115.985 173.044C116.059 173.159 116.157 173.247 116.277 173.307C116.398 173.365 116.54 173.394 116.701 173.394C116.838 173.394 116.959 173.37 117.064 173.323C117.17 173.275 117.259 173.207 117.331 173.118C117.403 173.029 117.458 172.922 117.495 172.796C117.535 172.669 117.554 172.528 117.554 172.371C117.554 172.228 117.535 172.096 117.495 171.974C117.456 171.852 117.397 171.745 117.319 171.654C117.242 171.563 117.148 171.493 117.036 171.443C116.925 171.392 116.796 171.366 116.652 171.366C116.459 171.366 116.314 171.392 116.214 171.443C116.117 171.495 116.017 171.565 115.914 171.654ZM120.131 173.803H119.189L119.195 173.317H120.131C120.454 173.317 120.723 173.249 120.938 173.115C121.153 172.979 121.314 172.788 121.421 172.544C121.531 172.298 121.586 172.011 121.586 171.682V171.406C121.586 171.148 121.555 170.918 121.493 170.718C121.431 170.515 121.34 170.345 121.22 170.206C121.1 170.066 120.953 169.959 120.779 169.887C120.608 169.814 120.41 169.778 120.187 169.778H119.17V169.288H120.187C120.483 169.288 120.753 169.338 120.997 169.437C121.24 169.534 121.45 169.676 121.626 169.862C121.804 170.046 121.94 170.269 122.035 170.532C122.131 170.792 122.178 171.086 122.178 171.412V171.682C122.178 172.009 122.131 172.304 122.035 172.566C121.94 172.827 121.803 173.049 121.623 173.233C121.445 173.417 121.23 173.558 120.978 173.658C120.728 173.755 120.446 173.803 120.131 173.803ZM119.508 169.288V173.803H118.909V169.288H119.508Z" fill="#828282"/>
<path d="M151.478 169.282H151.528V169.769H151.478C151.174 169.769 150.92 169.818 150.715 169.918C150.51 170.015 150.348 170.146 150.228 170.312C150.108 170.475 150.021 170.659 149.968 170.864C149.916 171.068 149.89 171.276 149.89 171.487V172.151C149.89 172.351 149.914 172.529 149.961 172.684C150.009 172.837 150.074 172.966 150.157 173.072C150.24 173.177 150.333 173.257 150.436 173.31C150.541 173.364 150.651 173.391 150.765 173.391C150.897 173.391 151.015 173.366 151.118 173.317C151.222 173.265 151.308 173.194 151.379 173.103C151.451 173.01 151.506 172.9 151.543 172.774C151.58 172.648 151.599 172.509 151.599 172.358C151.599 172.224 151.582 172.095 151.549 171.971C151.516 171.845 151.466 171.733 151.397 171.636C151.329 171.537 151.243 171.459 151.14 171.403C151.039 171.345 150.918 171.316 150.777 171.316C150.618 171.316 150.469 171.356 150.331 171.434C150.194 171.511 150.081 171.612 149.992 171.738C149.906 171.862 149.856 171.998 149.844 172.144L149.54 172.141C149.569 171.91 149.622 171.712 149.701 171.549C149.782 171.384 149.881 171.249 149.999 171.146C150.119 171.04 150.252 170.964 150.399 170.916C150.548 170.867 150.705 170.842 150.87 170.842C151.095 170.842 151.29 170.884 151.453 170.969C151.616 171.054 151.751 171.167 151.856 171.31C151.962 171.451 152.039 171.61 152.089 171.788C152.141 171.963 152.166 172.144 152.166 172.33C152.166 172.543 152.136 172.743 152.076 172.929C152.017 173.115 151.927 173.278 151.807 173.419C151.689 173.56 151.543 173.669 151.369 173.748C151.196 173.826 150.994 173.865 150.765 173.865C150.521 173.865 150.308 173.816 150.126 173.717C149.944 173.615 149.793 173.481 149.673 173.313C149.553 173.146 149.463 172.96 149.403 172.755C149.343 172.551 149.313 172.343 149.313 172.132V171.862C149.313 171.544 149.345 171.232 149.409 170.926C149.474 170.62 149.584 170.343 149.741 170.094C149.9 169.846 150.121 169.649 150.402 169.502C150.683 169.355 151.042 169.282 151.478 169.282ZM154.219 173.803H153.277L153.283 173.317H154.219C154.542 173.317 154.811 173.249 155.026 173.115C155.241 172.979 155.402 172.788 155.51 172.544C155.619 172.298 155.674 172.011 155.674 171.682V171.406C155.674 171.148 155.643 170.918 155.581 170.718C155.519 170.515 155.428 170.345 155.308 170.206C155.188 170.066 155.041 169.959 154.868 169.887C154.696 169.814 154.499 169.778 154.275 169.778H153.258V169.288H154.275C154.571 169.288 154.841 169.338 155.085 169.437C155.329 169.534 155.538 169.676 155.714 169.862C155.892 170.046 156.028 170.269 156.124 170.532C156.219 170.792 156.266 171.086 156.266 171.412V171.682C156.266 172.009 156.219 172.304 156.124 172.566C156.028 172.827 155.891 173.049 155.711 173.233C155.533 173.417 155.318 173.558 155.066 173.658C154.816 173.755 154.534 173.803 154.219 173.803ZM153.596 169.288V173.803H152.998V169.288H153.596Z" fill="#828282"/>
<path d="M183.71 169.288V169.611L181.84 173.803H181.235L183.102 169.76H180.658V169.288H183.71ZM185.735 173.803H184.792L184.798 173.317H185.735C186.058 173.317 186.326 173.249 186.541 173.115C186.756 172.979 186.918 172.788 187.025 172.544C187.135 172.298 187.189 172.011 187.189 171.682V171.406C187.189 171.148 187.158 170.918 187.096 170.718C187.034 170.515 186.943 170.345 186.824 170.206C186.704 170.066 186.557 169.959 186.383 169.887C186.212 169.814 186.014 169.778 185.791 169.778H184.774V169.288H185.791C186.087 169.288 186.356 169.338 186.6 169.437C186.844 169.534 187.054 169.676 187.23 169.862C187.408 170.046 187.544 170.269 187.639 170.532C187.734 170.792 187.782 171.086 187.782 171.412V171.682C187.782 172.009 187.734 172.304 187.639 172.566C187.544 172.827 187.407 173.049 187.227 173.233C187.049 173.417 186.834 173.558 186.582 173.658C186.331 173.755 186.049 173.803 185.735 173.803ZM185.112 169.288V173.803H184.513V169.288H185.112Z" fill="#828282"/>
<rect x="30.3438" y="162.345" width="27.8703" height="19.709" rx="9.85449" fill="#E7E7E7" fill-opacity="0.92"/>
<path d="M42.9804 173.411V174.108H39.8917V173.513L41.3523 171.947C41.4991 171.783 41.6149 171.64 41.6997 171.516C41.7844 171.39 41.8454 171.277 41.8826 171.178C41.9219 171.076 41.9415 170.98 41.9415 170.889C41.9415 170.753 41.9188 170.636 41.8733 170.539C41.8278 170.44 41.7606 170.363 41.6717 170.309C41.5849 170.256 41.4774 170.229 41.3492 170.229C41.2128 170.229 41.0949 170.262 40.9957 170.328C40.8985 170.394 40.8241 170.486 40.7724 170.604C40.7228 170.722 40.698 170.855 40.698 171.004H39.8017C39.8017 170.735 39.8658 170.489 39.994 170.266C40.1222 170.041 40.3031 169.862 40.5367 169.729C40.7703 169.595 41.0474 169.528 41.3678 169.528C41.6841 169.528 41.9508 169.58 42.1679 169.683C42.3871 169.784 42.5525 169.931 42.6641 170.123C42.7778 170.313 42.8347 170.541 42.8347 170.806C42.8347 170.954 42.8109 171.1 42.7634 171.243C42.7158 171.383 42.6476 171.524 42.5587 171.665C42.4718 171.803 42.3664 171.944 42.2424 172.086C42.1183 172.229 41.9808 172.377 41.8299 172.53L41.0453 173.411H42.9804ZM45.0179 174.108H44.0348L44.041 173.383H45.0179C45.2619 173.383 45.4676 173.328 45.6351 173.218C45.8025 173.107 45.9286 172.944 46.0134 172.731C46.1002 172.518 46.1436 172.261 46.1436 171.959V171.739C46.1436 171.507 46.1188 171.304 46.0692 171.128C46.0217 170.952 45.9503 170.804 45.8552 170.685C45.7601 170.565 45.6433 170.475 45.5048 170.415C45.3663 170.353 45.2071 170.322 45.0272 170.322H44.0162V169.593H45.0272C45.3291 169.593 45.6051 169.645 45.8552 169.748C46.1075 169.849 46.3256 169.995 46.5096 170.185C46.6936 170.375 46.8352 170.603 46.9345 170.868C47.0358 171.13 47.0864 171.423 47.0864 171.745V171.959C47.0864 172.28 47.0358 172.572 46.9345 172.837C46.8352 173.101 46.6936 173.329 46.5096 173.519C46.3277 173.707 46.1095 173.853 45.8552 173.956C45.603 174.058 45.3239 174.108 45.0179 174.108ZM44.562 169.593V174.108H43.6317V169.593H44.562Z" fill="#151515"/>
<path d="M1.07422 132.037C12.1827 132.037 13.2577 146.487 25.0828 146.487C36.9079 146.487 34.0412 105.42 45.1497 105.42C56.2581 105.42 50.1664 70.817 65.5749 70.817C80.9834 70.817 73.8166 105.42 87.7918 105.42C101.767 105.42 99.6169 65.0265 108.575 65.0265C117.534 65.0265 115.025 89.069 125.775 89.069C136.526 89.069 131.509 49.4132 142.976 49.4132C154.442 49.4132 153.367 66.7236 163.759 66.7236C174.151 66.7236 175.226 86.7875 189.559 86.7875C203.893 86.7875 194.935 109.151 208.551 109.151" stroke="#6C5FBC" stroke-width="1.98779" stroke-linecap="round" stroke-linejoin="round"/>
<path d="M177.197 74.1631C177.197 76.2775 175.6 77.8746 173.77 77.8746C171.941 77.8746 170.344 76.2775 170.344 74.1631C170.344 72.0486 171.941 70.4516 173.77 70.4516C175.6 70.4516 177.197 72.0486 177.197 74.1631Z" fill="#C5BFED" stroke="#6C5FBC" stroke-width="2.22012"/>
<rect x="173.151" y="52.2103" width="25.738" height="11.9386" rx="5.96928" fill="#6C5FBC"/>
<path d="M181.814 58.9314C181.814 59.1238 181.764 59.3051 181.664 59.4753C181.567 59.6418 181.423 59.7806 181.231 59.8916C181.042 59.9989 180.818 60.0618 180.559 60.0803V60.5299H180.204V60.0747C179.834 60.0414 179.536 59.9304 179.31 59.7417C179.085 59.5493 178.968 59.2903 178.961 58.9647H179.793C179.815 59.2311 179.952 59.3921 180.204 59.4476V58.3875C179.938 58.3209 179.723 58.2543 179.56 58.1876C179.397 58.121 179.257 58.0137 179.138 57.8657C179.02 57.7177 178.961 57.5161 178.961 57.2608C178.961 56.9388 179.075 56.6761 179.305 56.4726C179.538 56.2691 179.838 56.1525 180.204 56.1229V55.6734H180.559V56.1229C180.914 56.1525 181.197 56.2598 181.408 56.4449C181.623 56.6299 181.743 56.8852 181.769 57.2108H180.931C180.92 57.1035 180.881 57.011 180.814 56.9333C180.752 56.8519 180.666 56.7945 180.559 56.7612V57.8102C180.837 57.8805 181.055 57.949 181.214 58.0156C181.377 58.0785 181.518 58.1839 181.636 58.332C181.754 58.4763 181.814 58.6761 181.814 58.9314ZM179.771 57.2219C179.771 57.344 179.808 57.4439 179.882 57.5216C179.956 57.5956 180.063 57.6567 180.204 57.7048V56.7446C180.071 56.7631 179.965 56.813 179.888 56.8944C179.81 56.9758 179.771 57.085 179.771 57.2219ZM180.559 59.4587C180.7 59.4328 180.809 59.3754 180.887 59.2866C180.968 59.1978 181.009 59.0905 181.009 58.9647C181.009 58.8426 180.97 58.7445 180.892 58.6705C180.814 58.5965 180.703 58.5355 180.559 58.4874V59.4587ZM182.559 59.2589V58.6483L184.374 56.0508H185.279V58.5817H185.767V59.2589H185.279V60.047H184.502V59.2589H182.559ZM184.551 56.8833L183.414 58.5817H184.551V56.8833ZM186.262 57.9712C186.262 57.3311 186.376 56.8297 186.606 56.4671C186.839 56.1044 187.224 55.9231 187.76 55.9231C188.297 55.9231 188.68 56.1044 188.909 56.4671C189.142 56.8297 189.259 57.3311 189.259 57.9712C189.259 58.615 189.142 59.1201 188.909 59.4864C188.68 59.8527 188.297 60.0359 187.76 60.0359C187.224 60.0359 186.839 59.8527 186.606 59.4864C186.376 59.1201 186.262 58.615 186.262 57.9712ZM188.493 57.9712C188.493 57.6974 188.474 57.468 188.437 57.283C188.404 57.0942 188.334 56.9407 188.226 56.8223C188.123 56.7039 187.967 56.6447 187.76 56.6447C187.553 56.6447 187.396 56.7039 187.288 56.8223C187.185 56.9407 187.115 57.0942 187.078 57.283C187.044 57.468 187.028 57.6974 187.028 57.9712C187.028 58.2524 187.044 58.4892 187.078 58.6816C187.111 58.8703 187.181 59.0239 187.288 59.1423C187.396 59.257 187.553 59.3144 187.76 59.3144C187.967 59.3144 188.125 59.257 188.232 59.1423C188.339 59.0239 188.41 58.8703 188.443 58.6816C188.476 58.4892 188.493 58.2524 188.493 57.9712ZM190.749 58.9092C190.779 59.072 190.845 59.1978 190.949 59.2866C191.056 59.3717 191.199 59.4143 191.376 59.4143C191.606 59.4143 191.772 59.3199 191.876 59.1312C191.979 58.9388 192.031 58.6169 192.031 58.1654C191.946 58.2839 191.826 58.3764 191.67 58.443C191.519 58.5096 191.354 58.5429 191.176 58.5429C190.94 58.5429 190.725 58.4948 190.533 58.3986C190.344 58.2987 190.194 58.1525 190.083 57.9601C189.972 57.764 189.916 57.5272 189.916 57.2497C189.916 56.8389 190.039 56.5133 190.283 56.2728C190.527 56.0286 190.86 55.9065 191.282 55.9065C191.807 55.9065 192.177 56.0748 192.392 56.4116C192.61 56.7483 192.719 57.2552 192.719 57.9323C192.719 58.4134 192.677 58.8074 192.592 59.1145C192.51 59.4217 192.368 59.6548 192.164 59.8139C191.965 59.973 191.691 60.0525 191.343 60.0525C191.069 60.0525 190.836 60.0007 190.644 59.8971C190.451 59.7898 190.303 59.6511 190.2 59.4809C190.1 59.307 190.042 59.1164 190.027 58.9092H190.749ZM191.337 57.9101C191.53 57.9101 191.681 57.8509 191.792 57.7325C191.903 57.6141 191.959 57.455 191.959 57.2552C191.959 57.0369 191.9 56.8685 191.781 56.7501C191.667 56.628 191.509 56.567 191.31 56.567C191.11 56.567 190.951 56.6299 190.832 56.7557C190.718 56.8778 190.66 57.0406 190.66 57.2441C190.66 57.4402 190.716 57.6012 190.827 57.727C190.941 57.8491 191.112 57.9101 191.337 57.9101Z" fill="white"/>
<line opacity="0.09" x1="1.32803" y1="126.117" x2="208.024" y2="126.117" stroke="#6C5FBC" stroke-width="0.585257" stroke-linecap="round"/>
<line opacity="0.09" x1="2.01211" y1="101.397" x2="208.708" y2="101.397" stroke="#6C5FBC" stroke-width="0.585257" stroke-linecap="round"/>
<line opacity="0.09" x1="1.32778" y1="75.9505" x2="208.023" y2="75.9505" stroke="#6C5FBC" stroke-width="0.585257" stroke-linecap="round"/>
<g clip-path="url(#clip0_1_629)">
<rect x="27.5166" y="0.310791" width="37.9194" height="18.2662" rx="9.13309" fill="#6C5FBC"/>
<path d="M43.7437 7.01978V11.4438H43.1619V8.14498L41.6915 11.4438H41.2823L39.8055 8.13858V11.4438H39.2238V7.01978H39.8503L41.4869 10.6767L43.1236 7.01978H43.7437ZM44.513 9.67933C44.513 9.32132 44.5854 9.00805 44.7304 8.73954C44.8753 8.46677 45.0735 8.25579 45.3249 8.10662C45.5807 7.95744 45.8641 7.88286 46.1752 7.88286C46.4821 7.88286 46.7485 7.94892 46.9744 8.08104C47.2003 8.21317 47.3686 8.37939 47.4794 8.57971V7.94039H48.0676V11.4438H47.4794V10.7917C47.3643 10.9963 47.1917 11.1668 46.9616 11.3032C46.7357 11.4353 46.4714 11.5014 46.1688 11.5014C45.8577 11.5014 45.5764 11.4247 45.3249 11.2712C45.0735 11.1178 44.8753 10.9026 44.7304 10.6255C44.5854 10.3485 44.513 10.0331 44.513 9.67933ZM47.4794 9.68573C47.4794 9.42148 47.4261 9.19132 47.3196 8.99527C47.213 8.79921 47.0681 8.65004 46.8849 8.54775C46.7058 8.44119 46.5077 8.38792 46.2903 8.38792C46.0729 8.38792 45.8747 8.43906 45.6957 8.54135C45.5167 8.64364 45.3739 8.79282 45.2674 8.98887C45.1608 9.18493 45.1076 9.41508 45.1076 9.67933C45.1076 9.94785 45.1608 10.1823 45.2674 10.3826C45.3739 10.5786 45.5167 10.7299 45.6957 10.8365C45.8747 10.9388 46.0729 10.9899 46.2903 10.9899C46.5077 10.9899 46.7058 10.9388 46.8849 10.8365C47.0681 10.7299 47.213 10.5786 47.3196 10.3826C47.4261 10.1823 47.4794 9.94998 47.4794 9.68573ZM49.3512 7.3714C49.2404 7.3714 49.1466 7.33304 49.0699 7.25633C48.9932 7.17961 48.9548 7.08584 48.9548 6.97503C48.9548 6.86421 48.9932 6.77045 49.0699 6.69373C49.1466 6.61701 49.2404 6.57865 49.3512 6.57865C49.4578 6.57865 49.5473 6.61701 49.6197 6.69373C49.6964 6.77045 49.7348 6.86421 49.7348 6.97503C49.7348 7.08584 49.6964 7.17961 49.6197 7.25633C49.5473 7.33304 49.4578 7.3714 49.3512 7.3714ZM49.6325 7.94039V11.4438H49.0507V7.94039H49.6325ZM52.331 7.87646C52.7572 7.87646 53.1025 8.00646 53.3667 8.26645C53.631 8.52217 53.7631 8.89298 53.7631 9.37886V11.4438H53.1877V9.46197C53.1877 9.11247 53.1003 8.84609 52.9256 8.66282C52.7508 8.47529 52.5122 8.38152 52.2096 8.38152C51.9027 8.38152 51.6576 8.47742 51.4743 8.66922C51.2953 8.86101 51.2058 9.14018 51.2058 9.50672V11.4438H50.6241V7.94039H51.2058V8.43906C51.3209 8.26005 51.4765 8.12153 51.6725 8.02351C51.8729 7.92548 52.0924 7.87646 52.331 7.87646Z" fill="white"/>
<path d="M84.3277 6.66953L82.944 11.4438H82.2453L81.1357 7.6011L79.9849 11.4438L79.2931 11.4507L77.9574 6.66953H78.6218L79.663 10.7178L80.8137 6.66953H81.5124L82.6084 10.7041L83.6564 6.66953H84.3277ZM88.5032 9.42315C88.5032 9.54188 88.4964 9.66746 88.4827 9.79989H85.4825C85.5053 10.1698 85.6309 10.4598 85.8592 10.6698C86.0921 10.8753 86.3729 10.9781 86.7017 10.9781C86.9712 10.9781 87.1949 10.9164 87.373 10.7931C87.5557 10.6653 87.6835 10.4963 87.7566 10.2862H88.4279C88.3274 10.647 88.1265 10.9415 87.8251 11.1699C87.5237 11.3936 87.1493 11.5055 86.7017 11.5055C86.3455 11.5055 86.0259 11.4256 85.7428 11.2658C85.4642 11.1059 85.245 10.8799 85.0852 10.5876C84.9254 10.2908 84.8454 9.9483 84.8454 9.56015C84.8454 9.17199 84.9231 8.83178 85.0783 8.53953C85.2336 8.24727 85.4505 8.02351 85.7291 7.86824C86.0122 7.70841 86.3364 7.6285 86.7017 7.6285C87.0579 7.6285 87.373 7.70613 87.647 7.86139C87.921 8.01666 88.1311 8.23128 88.2772 8.50528C88.4279 8.7747 88.5032 9.08066 88.5032 9.42315ZM87.8594 9.29301C87.8594 9.05555 87.8068 8.85233 87.7018 8.68337C87.5968 8.50984 87.4529 8.3797 87.2703 8.29293C87.0922 8.2016 86.8935 8.15594 86.6743 8.15594C86.3592 8.15594 86.0898 8.2564 85.8661 8.45733C85.6469 8.65826 85.5213 8.93682 85.4893 9.29301H87.8594ZM92.8194 9.42315C92.8194 9.54188 92.8126 9.66746 92.7989 9.79989H89.7987C89.8215 10.1698 89.9471 10.4598 90.1754 10.6698C90.4083 10.8753 90.6891 10.9781 91.0179 10.9781C91.2874 10.9781 91.5111 10.9164 91.6892 10.7931C91.8719 10.6653 91.9997 10.4963 92.0728 10.2862H92.7441C92.6436 10.647 92.4427 10.9415 92.1413 11.1699C91.8399 11.3936 91.4654 11.5055 91.0179 11.5055C90.6617 11.5055 90.3421 11.4256 90.059 11.2658C89.7804 11.1059 89.5612 10.8799 89.4014 10.5876C89.2415 10.2908 89.1616 9.9483 89.1616 9.56015C89.1616 9.17199 89.2393 8.83178 89.3945 8.53953C89.5498 8.24727 89.7667 8.02351 90.0453 7.86824C90.3284 7.70841 90.6526 7.6285 91.0179 7.6285C91.3741 7.6285 91.6892 7.70613 91.9632 7.86139C92.2372 8.01666 92.4473 8.23128 92.5934 8.50528C92.7441 8.7747 92.8194 9.08066 92.8194 9.42315ZM92.1755 9.29301C92.1755 9.05555 92.123 8.85233 92.018 8.68337C91.913 8.50984 91.7691 8.3797 91.5865 8.29293C91.4084 8.2016 91.2097 8.15594 90.9905 8.15594C90.6754 8.15594 90.406 8.2564 90.1822 8.45733C89.9631 8.65826 89.8375 8.93682 89.8055 9.29301H92.1755ZM95.8067 11.4438L94.334 9.78619V11.4438H93.7107V6.37498H94.334V9.35465L95.7793 7.69015H96.6493L94.882 9.56015L96.6561 11.4438H95.8067ZM97.9278 6.37498V11.4438H97.3045V6.37498H97.9278ZM102.292 7.69015L100.031 13.2111H99.3874L100.127 11.4027L98.6134 7.69015H99.3052L100.483 10.7315L101.648 7.69015H102.292Z" fill="#828282"/>
<path d="M125.727 6.70378V11.4438H125.103V7.90934L123.528 11.4438H123.089L121.507 7.90249V11.4438H120.884V6.70378H121.555L123.309 10.6219L125.062 6.70378H125.727ZM128.489 11.5055C128.138 11.5055 127.818 11.4256 127.53 11.2658C127.247 11.1059 127.023 10.8799 126.859 10.5876C126.699 10.2908 126.619 9.9483 126.619 9.56015C126.619 9.17656 126.701 8.83863 126.866 8.54638C127.035 8.24955 127.263 8.02351 127.551 7.86824C127.839 7.70841 128.16 7.6285 128.517 7.6285C128.873 7.6285 129.195 7.70841 129.483 7.86824C129.77 8.02351 129.996 8.24727 130.161 8.53953C130.33 8.83178 130.414 9.17199 130.414 9.56015C130.414 9.9483 130.327 10.2908 130.154 10.5876C129.985 10.8799 129.754 11.1059 129.462 11.2658C129.17 11.4256 128.845 11.5055 128.489 11.5055ZM128.489 10.9575C128.713 10.9575 128.923 10.905 129.119 10.8C129.316 10.6949 129.473 10.5374 129.592 10.3273C129.715 10.1173 129.777 9.86154 129.777 9.56015C129.777 9.25876 129.718 9.00303 129.599 8.79297C129.48 8.58291 129.325 8.42765 129.133 8.32718C128.941 8.22215 128.734 8.16964 128.51 8.16964C128.282 8.16964 128.071 8.22215 127.88 8.32718C127.692 8.42765 127.542 8.58291 127.428 8.79297C127.313 9.00303 127.256 9.25876 127.256 9.56015C127.256 9.86611 127.311 10.1241 127.421 10.3342C127.535 10.5442 127.686 10.7018 127.873 10.8068C128.06 10.9073 128.266 10.9575 128.489 10.9575ZM133.131 7.62165C133.588 7.62165 133.958 7.76093 134.241 8.03949C134.524 8.31348 134.665 8.71077 134.665 9.23136V11.4438H134.049V9.3204C134.049 8.94595 133.955 8.66054 133.768 8.46418C133.581 8.26325 133.325 8.16279 133.001 8.16279C132.672 8.16279 132.41 8.26553 132.213 8.47103C132.021 8.67652 131.925 8.97563 131.925 9.36835V11.4438H131.302V7.69015H131.925V8.22443C132.049 8.03264 132.215 7.88423 132.426 7.7792C132.64 7.67417 132.875 7.62165 133.131 7.62165ZM136.512 8.20388V10.4164C136.512 10.599 136.551 10.7292 136.629 10.8068C136.707 10.8799 136.841 10.9164 137.033 10.9164H137.492V11.4438H136.93C136.583 11.4438 136.323 11.3639 136.149 11.2041C135.976 11.0443 135.889 10.7817 135.889 10.4164V8.20388H135.403V7.69015H135.889V6.74487H136.512V7.69015H137.492V8.20388H136.512ZM138.939 6.37498V11.4438H138.316V6.37498H138.939ZM143.303 7.69015L141.043 13.2111H140.399L141.138 11.4027L139.625 7.69015H140.317L141.495 10.7315L142.659 7.69015H143.303Z" fill="#828282"/>
<path d="M164.818 6.66953L163.263 9.64235V11.4438H162.64V9.64235L161.078 6.66953H161.77L162.948 9.08751L164.126 6.66953H164.818ZM168.969 9.42315C168.969 9.54188 168.962 9.66746 168.949 9.79989H165.948C165.971 10.1698 166.097 10.4598 166.325 10.6698C166.558 10.8753 166.839 10.9781 167.168 10.9781C167.437 10.9781 167.661 10.9164 167.839 10.7931C168.022 10.6653 168.149 10.4963 168.223 10.2862H168.894C168.793 10.647 168.592 10.9415 168.291 11.1699C167.99 11.3936 167.615 11.5055 167.168 11.5055C166.811 11.5055 166.492 11.4256 166.209 11.2658C165.93 11.1059 165.711 10.8799 165.551 10.5876C165.391 10.2908 165.311 9.9483 165.311 9.56015C165.311 9.17199 165.389 8.83178 165.544 8.53953C165.7 8.24727 165.916 8.02351 166.195 7.86824C166.478 7.70841 166.802 7.6285 167.168 7.6285C167.524 7.6285 167.839 7.70613 168.113 7.86139C168.387 8.01666 168.597 8.23128 168.743 8.50528C168.894 8.7747 168.969 9.08066 168.969 9.42315ZM168.325 9.29301C168.325 9.05555 168.273 8.85233 168.168 8.68337C168.063 8.50984 167.919 8.3797 167.736 8.29293C167.558 8.2016 167.359 8.15594 167.14 8.15594C166.825 8.15594 166.556 8.2564 166.332 8.45733C166.113 8.65826 165.987 8.93682 165.955 9.29301H168.325ZM169.628 9.5533C169.628 9.16971 169.705 8.83407 169.86 8.54638C170.016 8.25412 170.228 8.02807 170.497 7.86824C170.771 7.70841 171.075 7.6285 171.408 7.6285C171.737 7.6285 172.023 7.69928 172.265 7.84084C172.507 7.98241 172.687 8.1605 172.806 8.37513V7.69015H173.436V11.4438H172.806V10.7452C172.683 10.9644 172.498 11.147 172.251 11.2932C172.009 11.4347 171.726 11.5055 171.402 11.5055C171.068 11.5055 170.767 11.4233 170.497 11.2589C170.228 11.0945 170.016 10.8639 169.86 10.5671C169.705 10.2702 169.628 9.93232 169.628 9.5533ZM172.806 9.56015C172.806 9.27702 172.749 9.03043 172.635 8.82037C172.52 8.61031 172.365 8.45048 172.169 8.34088C171.977 8.22672 171.765 8.16964 171.532 8.16964C171.299 8.16964 171.087 8.22443 170.895 8.33403C170.703 8.44363 170.55 8.60346 170.436 8.81352C170.322 9.02358 170.265 9.27017 170.265 9.5533C170.265 9.84099 170.322 10.0922 170.436 10.3068C170.55 10.5168 170.703 10.679 170.895 10.7931C171.087 10.9027 171.299 10.9575 171.532 10.9575C171.765 10.9575 171.977 10.9027 172.169 10.7931C172.365 10.679 172.52 10.5168 172.635 10.3068C172.749 10.0922 172.806 9.84327 172.806 9.56015ZM175.181 8.29978C175.291 8.08515 175.446 7.91848 175.647 7.79975C175.853 7.68102 176.101 7.62165 176.394 7.62165V8.26553H176.229C175.531 8.26553 175.181 8.64456 175.181 9.4026V11.4438H174.558V7.69015H175.181V8.29978ZM177.805 6.37498V11.4438H177.182V6.37498H177.805ZM182.169 7.69015L179.909 13.2111H179.265L180.004 11.4027L178.491 7.69015H179.182L180.361 10.7315L181.525 7.69015H182.169Z" fill="#828282"/>
</g>
<defs>
<clipPath id="clip0_1_629">
<rect x="27.5166" y="0.310791" width="159.389" height="18.2662" rx="9.13309" fill="white"/>
</clipPath>
</defs>
</svg>
