<svg width="62" height="57" viewBox="0 0 62 57" fill="none" xmlns="http://www.w3.org/2000/svg">
<rect x="4.93492" y="6.7063" width="56.7763" height="50.2938" rx="9.38817" fill="#6C5FBC"/>
<rect x="1.35713" y="1.35713" width="54.0621" height="47.5795" rx="8.03104" fill="#DBD9EE" stroke="#6C5FBC" stroke-width="2.71427"/>
<path d="M43.8232 16.2344L13.0603 16.098" stroke="#6C5FBC" stroke-width="2.80765" stroke-linecap="round" stroke-linejoin="round"/>
<path d="M43.8051 22.4092L36.9621 22.3779C34.1316 22.3649 31.8421 19.5876 31.8522 16.1791C31.8623 12.7706 34.1681 10.0143 36.9986 10.0273L43.8416 10.0586" stroke="#6C5FBC" stroke-width="2.80765" stroke-linecap="round" stroke-linejoin="round"/>
<path d="M23.3217 35.9954L14.3825 35.8943C13.6501 35.891 13.0363 35.1664 13.0222 34.2842L12.9625 31.9582C12.9486 31.0358 13.5668 30.2568 14.3326 30.2603L23.1718 30.3609L23.3217 35.9954Z" stroke="#6C5FBC" stroke-width="2.80765" stroke-linecap="round" stroke-linejoin="round"/>
<path d="M37.3618 39.3454L24.7264 39.1873C23.9939 39.1839 23.3801 38.4595 23.3661 37.5774L23.2043 30.3403L43.7305 30.5946L43.7444 31.5167C43.848 35.8871 40.9742 39.402 37.3618 39.3454Z" stroke="#6C5FBC" stroke-width="2.80765" stroke-linecap="round" stroke-linejoin="round"/>
</svg>
