<svg width="44" height="44" viewBox="0 0 44 44" fill="white"  xmlns="http://www.w3.org/2000/svg">
<path fill-rule="evenodd" clip-rule="evenodd" d="M27.2322 11.8911C23.7747 11.3115 20.2252 11.3115 16.7677 11.8911C16.1171 12.0002 15.6003 12.5001 15.4706 13.1441C14.2905 19.0027 14.2261 25.0314 15.2808 30.9139L15.4988 32.1301L20.3929 27.4808C21.2935 26.6252 22.7065 26.6252 23.607 27.4808L28.5011 32.1301L28.7192 30.9139C29.7738 25.0314 29.7095 19.0027 28.5294 13.1441C28.3997 12.5001 27.8829 12.0002 27.2322 11.8911ZM16.437 9.91868C20.1135 9.30234 23.8865 9.30234 27.5629 9.91868C29.0285 10.1644 30.196 11.2895 30.49 12.7491C31.7197 18.8543 31.7868 25.1367 30.6878 31.2668L30.3924 32.9139C30.1446 34.2964 28.4592 34.8489 27.4409 33.8816L22.2295 28.9308C22.1009 28.8085 21.899 28.8085 21.7704 28.9308L16.559 33.8816C15.5407 34.8489 13.8554 34.2964 13.6075 32.9139L13.3122 31.2668C12.2131 25.1367 12.2802 18.8543 13.5099 12.7491C13.804 11.2895 14.9714 10.1644 16.437 9.91868Z" fill="white"
stroke="white"/>
</svg>
